<?xml version="1.0" encoding="UTF-8" standalone="no"?>
<!DOCTYPE svg PUBLIC "-//W3C//DTD SVG 1.1//EN"
 "http://www.w3.org/Graphics/SVG/1.1/DTD/svg11.dtd">
<!-- Generated by graphviz version 2.26.3 (20100126.1600)
 -->
<!-- Title: AbstractDoublyLinkedList Pages: 1 -->
<svg width="500pt" height="146pt"
 viewBox="0.00 0.00 500.00 146.00" xmlns="http://www.w3.org/2000/svg" xmlns:xlink="http://www.w3.org/1999/xlink">
<g id="graph1" class="graph" transform="scale(1 1) rotate(0) translate(4 142)">
<title>AbstractDoublyLinkedList</title>
<polygon fill="white" stroke="white" points="-4,5 -4,-142 497,-142 497,5 -4,5"/>
<!-- Node1 -->
<g id="node1" class="node"><title>Node1</title>
<polygon fill="#bfbfbf" stroke="black" points="0,-81.5 0,-102.5 128,-102.5 128,-81.5 0,-81.5"/>
<text text-anchor="middle" x="64" y="-89.5" font-family="Helvetica,sans-Serif" font-size="10.00">AbstractDoublyLinkedList</text>
</g>
<!-- Node2 -->
<g id="node3" class="node"><title>Node2</title>
<a xlink:href="classnode__copying_1_1DoublyLinkedList.html" target="_top" xlink:title="node_copying::DoublyLinkedList">
<polygon fill="white" stroke="black" points="164,-104.5 164,-125.5 322,-125.5 322,-104.5 164,-104.5"/>
<text text-anchor="middle" x="243" y="-112.5" font-family="Helvetica,sans-Serif" font-size="10.00">node_copying::DoublyLinkedList</text>
</a>
</g>
<!-- Node1&#45;&gt;Node2 -->
<g id="edge2" class="edge"><title>Node1&#45;&gt;Node2</title>
<path fill="none" stroke="midnightblue" d="M138.255,-101.541C146.658,-102.621 155.245,-103.724 163.709,-104.812"/>
<polygon fill="midnightblue" stroke="midnightblue" points="138.482,-98.0416 128.118,-100.239 137.59,-104.985 138.482,-98.0416"/>
</g>
<!-- Node3 -->
<g id="node5" class="node"><title>Node3</title>
<a xlink:href="classrollback_1_1AbstractRollbackDoublyLinkedList.html" target="_top" xlink:title="rollback::AbstractRollback\lDoublyLinkedList">
<polygon fill="white" stroke="black" points="177.5,-52 177.5,-86 308.5,-86 308.5,-52 177.5,-52"/>
<text text-anchor="start" x="185.5" y="-73" font-family="Helvetica,sans-Serif" font-size="10.00">rollback::AbstractRollback</text>
<text text-anchor="middle" x="243" y="-60" font-family="Helvetica,sans-Serif" font-size="10.00">DoublyLinkedList</text>
</a>
</g>
<!-- Node1&#45;&gt;Node3 -->
<g id="edge4" class="edge"><title>Node1&#45;&gt;Node3</title>
<path fill="none" stroke="midnightblue" d="M138.346,-82.4471C151.243,-80.79 164.572,-79.0774 177.22,-77.4522"/>
<polygon fill="midnightblue" stroke="midnightblue" points="137.59,-79.0155 128.118,-83.7614 138.482,-85.9584 137.59,-79.0155"/>
</g>
<!-- Node4 -->
<g id="node7" class="node"><title>Node4</title>
<a xlink:href="classrollback_1_1blackbox_1_1DoublyLinkedList.html" target="_top" xlink:title="rollback::blackbox\l::DoublyLinkedList">
<polygon fill="white" stroke="black" points="376,-104 376,-138 474,-138 474,-104 376,-104"/>
<text text-anchor="start" x="384" y="-125" font-family="Helvetica,sans-Serif" font-size="10.00">rollback::blackbox</text>
<text text-anchor="middle" x="425" y="-112" font-family="Helvetica,sans-Serif" font-size="10.00">::DoublyLinkedList</text>
</a>
</g>
<!-- Node3&#45;&gt;Node4 -->
<g id="edge6" class="edge"><title>Node3&#45;&gt;Node4</title>
<path fill="none" stroke="midnightblue" d="M312.494,-88.8553C333.632,-94.8948 356.413,-101.404 375.909,-106.974"/>
<polygon fill="midnightblue" stroke="midnightblue" points="313.17,-85.4087 302.594,-86.0267 311.247,-92.1394 313.17,-85.4087"/>
</g>
<!-- Node5 -->
<g id="node9" class="node"><title>Node5</title>
<a xlink:href="classrollback_1_1eliminate__reorder_1_1DoublyLinkedList.html" target="_top" xlink:title="rollback::eliminate\l_reorder::DoublyLinkedList">
<polygon fill="white" stroke="black" points="358.5,-52 358.5,-86 491.5,-86 491.5,-52 358.5,-52"/>
<text text-anchor="start" x="366.5" y="-73" font-family="Helvetica,sans-Serif" font-size="10.00">rollback::eliminate</text>
<text text-anchor="middle" x="425" y="-60" font-family="Helvetica,sans-Serif" font-size="10.00">_reorder::DoublyLinkedList</text>
</a>
</g>
<!-- Node3&#45;&gt;Node5 -->
<g id="edge8" class="edge"><title>Node3&#45;&gt;Node5</title>
<path fill="none" stroke="midnightblue" d="M319.084,-69C332.165,-69 345.668,-69 358.473,-69"/>
<polygon fill="midnightblue" stroke="midnightblue" points="318.706,-65.5001 308.706,-69 318.706,-72.5001 318.706,-65.5001"/>
</g>
<!-- Node6 -->
<g id="node11" class="node"><title>Node6</title>
<a xlink:href="classrollback_1_1reorder_1_1DoublyLinkedList.html" target="_top" xlink:title="rollback::reorder:\l:DoublyLinkedList">
<polygon fill="white" stroke="black" points="377.5,-0 377.5,-34 472.5,-34 472.5,-0 377.5,-0"/>
<text text-anchor="start" x="385.5" y="-21" font-family="Helvetica,sans-Serif" font-size="10.00">rollback::reorder:</text>
<text text-anchor="middle" x="425" y="-8" font-family="Helvetica,sans-Serif" font-size="10.00">:DoublyLinkedList</text>
</a>
</g>
<!-- Node3&#45;&gt;Node6 -->
<g id="edge10" class="edge"><title>Node3&#45;&gt;Node6</title>
<path fill="none" stroke="midnightblue" d="M312.42,-49.1658C334.113,-42.9676 357.543,-36.2733 377.382,-30.6051"/>
<polygon fill="midnightblue" stroke="midnightblue" points="311.247,-45.8606 302.594,-51.9733 313.17,-52.5913 311.247,-45.8606"/>
</g>
</g>
</svg>
